<?xml version="1.0" encoding="UTF-8" standalone="no"?>
<!-- Created with Inkscape (http://www.inkscape.org/) -->

<svg
   width="160"
   height="35"
   viewBox="0 0 42.333333 9.2604164"
   version="1.1"
   id="svg1"
   xml:space="preserve"
   xmlns="http://www.w3.org/2000/svg"
   xmlns:svg="http://www.w3.org/2000/svg"><defs
     id="defs1" /><g
     id="layer1"><rect
       style="fill:#ffffff;fill-opacity:1;stroke:none;stroke-width:0;stroke-linejoin:bevel;stroke-miterlimit:0;stroke-dasharray:none;stroke-dashoffset:50;stroke-opacity:1"
       id="rect3"
       width="17.796482"
       height="9.260416"
       x="0"
       y="0" /><path
       d="M 7.9081363,1.5925423 A 2.9989713,2.9989713 0 0 1 7.5396701,2.2374021 3.4340782,3.4340782 0 1 0 2.7420992,7.1482932 l 0.1275626,0.1133854 a 3.4305484,3.4305484 0 0 0 5.6337133,-2.38104 C 8.6026181,4.016111 8.3403789,2.910603 7.9081147,1.5925206 Z M 3.2381928,7.1766451 A 0.29196523,0.29196523 0 1 1 3.1956754,6.7656184 0.29833601,0.29833601 0 0 1 3.2381928,7.1766451 Z M 7.8868779,6.1491105 C 7.0436087,7.2758552 5.2294869,6.8931691 4.074401,6.9498838 c 0,0 -0.2055026,0.014209 -0.4110378,0.042517 0,0 0.077984,-0.035358 0.1771833,-0.070823 C 4.6554851,6.6381324 5.0381385,6.5814177 5.5341995,6.3263045 6.4625244,5.8515129 7.3908494,4.8098346 7.5750828,3.7326785 7.2207596,4.7672959 6.1436357,5.6601862 5.1656897,6.0216027 4.4924887,6.2696225 3.2807207,6.5105703 3.2807207,6.5105703 L 3.2311537,6.4822618 C 2.4091214,6.0783175 2.380802,4.2925478 3.8830959,3.718546 4.5421534,3.463433 5.1657439,3.6051925 5.8814835,3.4351027 6.6397184,3.2579303 7.5184549,2.6910111 7.8727889,1.9469521 8.2696077,3.1445442 8.7514931,5.0011939 7.8868897,6.1491972 Z"
       id="path1"
       style="fill:#6db33f;fill-opacity:1;stroke-width:0.264582" /><path
       style="fill:#6db33f;fill-opacity:1;stroke:#000000;stroke-width:0;stroke-linejoin:bevel;stroke-miterlimit:0"
       d="M 8.5243347,0 13.922987,9.2604165 H 42.333335 V 0 Z"
       id="path2" /><rect
       style="fill:none;fill-opacity:1;stroke:#000000;stroke-width:0.264583;stroke-linecap:butt;stroke-linejoin:bevel;stroke-miterlimit:0;stroke-dasharray:none;stroke-dashoffset:0;stroke-opacity:1"
       id="rect2-6"
       width="42.333332"
       height="9.260416"
       x="0"
       y="0" /><text
       xml:space="preserve"
       style="font-weight:bold;font-size:3.68988px;line-height:0.9;font-family:'Fira Code';-inkscape-font-specification:'Fira Code Bold';letter-spacing:0px;fill:#ffffff;fill-opacity:1;stroke:none;stroke-width:0;stroke-linecap:butt;stroke-linejoin:bevel;stroke-miterlimit:0;stroke-dasharray:none;stroke-dashoffset:50;stroke-opacity:1"
       x="13.89831"
       y="5.7419028"
       id="text3"><tspan
         id="tspan3"
         style="stroke-width:0"
         x="13.89831"
         y="5.7419028">Sprint boot</tspan></text></g></svg>
