<?xml version="1.0" encoding="UTF-8" standalone="no"?>
<!-- Created with Inkscape (http://www.inkscape.org/) -->

<svg
   width="160"
   height="35"
   viewBox="0 0 42.333333 9.2604164"
   version="1.1"
   id="svg1"
   xml:space="preserve"
   xmlns="http://www.w3.org/2000/svg"
   xmlns:svg="http://www.w3.org/2000/svg"><defs
     id="defs1" /><g
     id="layer1"><rect
       style="fill:#ffffff;fill-opacity:1;stroke:none;stroke-width:0;stroke-linejoin:bevel;stroke-miterlimit:0;stroke-dasharray:none;stroke-dashoffset:50;stroke-opacity:1"
       id="rect3"
       width="17.796482"
       height="9.260416"
       x="0"
       y="0" /><path
       d="M 8.9664697,1.5925423 A 2.9989713,2.9989713 0 0 1 8.5980035,2.2374021 3.4340782,3.4340782 0 1 0 3.8004326,7.1482932 l 0.1275626,0.1133854 a 3.4305484,3.4305484 0 0 0 5.6337133,-2.38104 C 9.6609515,4.016111 9.3987123,2.910603 8.9664481,1.5925206 Z M 4.2965262,7.1766451 A 0.29196523,0.29196523 0 1 1 4.2540088,6.7656184 0.29833601,0.29833601 0 0 1 4.2965262,7.1766451 Z M 8.9452113,6.1491105 c -0.8432692,1.1267447 -2.657391,0.7440586 -3.8124769,0.8007733 0,0 -0.2055026,0.014209 -0.4110378,0.042517 0,0 0.077984,-0.035358 0.1771833,-0.070823 C 5.7138185,6.6381324 6.0964719,6.5814177 6.5925329,6.3263045 7.5208578,5.8515129 8.4491828,4.8098346 8.6334162,3.7326785 8.279093,4.7672959 7.2019691,5.6601862 6.2240231,6.0216027 5.5508221,6.2696225 4.3390541,6.5105703 4.3390541,6.5105703 L 4.2894871,6.4822618 C 3.4674548,6.0783175 3.4391354,4.2925478 4.9414293,3.718546 5.6004868,3.463433 6.2240773,3.6051925 6.9398169,3.4351027 7.6980518,3.2579303 8.5767883,2.6910111 8.9311223,1.9469521 9.3279411,3.1445442 9.8098265,5.0011939 8.9452231,6.1491972 Z"
       id="path1"
       style="fill:#6db33f;fill-opacity:1;stroke-width:0.264582" /><path
       style="fill:#6db33f;fill-opacity:1;stroke:#000000;stroke-width:0;stroke-linejoin:bevel;stroke-miterlimit:0"
       d="m 11.543703,0 4.916516,9.2604165 H 42.333332 V 0 Z"
       id="path2" /><rect
       style="fill:none;fill-opacity:1;stroke:#000000;stroke-width:0.264583;stroke-linecap:butt;stroke-linejoin:bevel;stroke-miterlimit:0;stroke-dasharray:none;stroke-dashoffset:0;stroke-opacity:1"
       id="rect2-6"
       width="42.333332"
       height="9.260416"
       x="0"
       y="0" /></g></svg>
